<svg version="1.1" viewBox="0 0 48 48" xmlns="http://www.w3.org/2000/svg">
 <defs>
  <linearGradient id="bg" x2="0" y1="1" y2="47" gradientUnits="userSpaceOnUse">
   <stop style="stop-color:#004278" offset="0"/>
   <stop style="stop-color:#003764" offset="1"/>
  </linearGradient>
 </defs>
 <path d="m1 43v0.25c0 2.216 1.784 4 4 4h38c2.216 0 4-1.784 4-4v-0.25c0 2.216-1.784 4-4 4h-38c-2.216 0-4-1.784-4-4zm0 0.5v0.5c0 2.216 1.784 4 4 4h38c2.216 0 4-1.784 4-4v-0.5c0 2.216-1.784 4-4 4h-38c-2.216 0-4-1.784-4-4z" style="opacity:.02"/>
 <path d="m1 43.25v0.25c0 2.216 1.784 4 4 4h38c2.216 0 4-1.784 4-4v-0.25c0 2.216-1.784 4-4 4h-38c-2.216 0-4-1.784-4-4z" style="opacity:.05"/>
 <path d="m1 43v0.25c0 2.216 1.784 4 4 4h38c2.216 0 4-1.784 4-4v-0.25c0 2.216-1.784 4-4 4h-38c-2.216 0-4-1.784-4-4z" style="opacity:.1"/>
 <rect x="1" y="1" width="46" height="46" rx="4" style="fill:url(#bg)"/>
 <path d="m1 39v4c0 2.216 1.784 4 4 4h38c2.216 0 4-1.784 4-4v-4c0 2.216-1.784 4-4 4h-38c-2.216 0-4-1.784-4-4z" style="opacity:.1"/>
 <path d="m22 11-2 5-1.4785 5-2.5215 9v2l0.57812-1-0.07813 1v1h0.19531l0.30469-0.5v0.5l-0.35938 1h0.35938l0.5-0.5v0.5h0.5l0.5-1 0.5 0.5 1-2.5 2.5-9 1-3.5h1v1.5l-0.5 2 1-1.5 1 0.5-1.5 2h1.5l-1 0.5v0.5l2-1 1-2 0.5-3-2-3-1-1-1-2-1.5-1zm7 9.5-0.5 0.5-1 2v1l-1 1v0.5l0.5-0.5 0.5 0.5-0.5 1-1 0.5v0.5h1l0.5-0.5 0.5 1v0.5l-1 0.5h-0.5v0.5l0.5 0.5h1l0.5 0.5-0.5 0.5h0.5l-0.19141 0.60547-2.3086-1.6055v0.5l2 2.5-0.35938 1-0.64062-1h-0.5l0.5 1.5v1.5l-1 3 2-2.5 2-4.5 1-4-1-5z" style="opacity:.1"/>
 <path d="m22 10-2 5-1.4785 5-2.5215 9v2l0.57812-1-0.07813 1v1h0.19531l0.30469-0.5v0.5l-0.35938 1h0.35938l0.5-0.5v0.5h0.5l0.5-1 0.5 0.5 1-2.5 2.5-9 1-3.5h1v1.5l-0.5 2 1-1.5 1 0.5-1.5 2h1.5l-1 0.5v0.5l2-1 1-2 0.5-3-2-3-1-1-1-2-1.5-1zm7 9.5-0.5 0.5-1 2v1l-1 1v0.5l0.5-0.5 0.5 0.5-0.5 1-1 0.5v0.5h1l0.5-0.5 0.5 1v0.5l-1 0.5h-0.5v0.5l0.5 0.5h1l0.5 0.5-0.5 0.5h0.5l-0.19141 0.60547-2.3086-1.6055v0.5l2 2.5-0.35938 1-0.64062-1h-0.5l0.5 1.5v1.5l-1 3 2-2.5 2-4.5 1-4-1-5z" style="fill:#23bfff"/>
</svg>
